<svg width="20" height="20" viewBox="0 0 20 20" fill="none" xmlns="http://www.w3.org/2000/svg">
<g id="close_black_24dp (2) 1" clip-path="url(#clip0_7_1911)">
<path id="Vector" d="M15.2516 4.7599C14.9266 4.4349 14.4016 4.4349 14.0766 4.7599L10.0016 8.82656L5.92656 4.75156C5.60156 4.42656 5.07656 4.42656 4.75156 4.75156C4.42656 5.07656 4.42656 5.60156 4.75156 5.92656L8.82656 10.0016L4.75156 14.0766C4.42656 14.4016 4.42656 14.9266 4.75156 15.2516C5.07656 15.5766 5.60156 15.5766 5.92656 15.2516L10.0016 11.1766L14.0766 15.2516C14.4016 15.5766 14.9266 15.5766 15.2516 15.2516C15.5766 14.9266 15.5766 14.4016 15.2516 14.0766L11.1766 10.0016L15.2516 5.92656C15.5682 5.6099 15.5682 5.07656 15.2516 4.7599Z" fill="#70757A"/>
</g>
<defs>
<clipPath id="clip0_7_1911">
<rect width="20" height="20" fill="white"/>
</clipPath>
</defs>
</svg>
