<svg width="48" height="48" viewBox="0 0 48 48" fill="none" xmlns="http://www.w3.org/2000/svg">
<rect width="48" height="48" rx="8" fill="#FEF4EF"/>
<g clip-path="url(#clip0_202_8749)">
<path d="M17.8846 23.9353C16.0844 23.9908 14.612 24.702 13.4674 26.0689H11.2338C10.3225 26.0689 9.55576 25.8439 8.93345 25.3938C8.31115 24.9437 8 24.2853 8 23.4185C8 19.4958 8.68898 17.5344 10.0669 17.5344C10.1336 17.5344 10.3753 17.6511 10.792 17.8845C11.2088 18.1179 11.7505 18.354 12.4172 18.5929C13.084 18.8318 13.7452 18.9513 14.4008 18.9513C15.1454 18.9513 15.8844 18.8235 16.6178 18.5679C16.5622 18.9791 16.5344 19.3458 16.5344 19.6681C16.5344 21.2127 16.9845 22.6351 17.8846 23.9353ZM35.7369 34.5533C35.7369 35.8868 35.3313 36.9397 34.5201 37.7121C33.7089 38.4844 32.631 38.8706 31.2864 38.8706H16.7178C15.3732 38.8706 14.2953 38.4844 13.484 37.7121C12.6728 36.9397 12.2672 35.8868 12.2672 34.5533C12.2672 33.9644 12.2867 33.3893 12.3256 32.8281C12.3645 32.2669 12.4422 31.6613 12.5589 31.0112C12.6756 30.3611 12.8229 29.7583 13.0007 29.2026C13.1785 28.647 13.4174 28.1053 13.7174 27.5774C14.0175 27.0496 14.3619 26.5995 14.7509 26.2272C15.1398 25.855 15.6149 25.5577 16.1761 25.3355C16.7372 25.1132 17.3568 25.0021 18.0346 25.0021C18.1458 25.0021 18.3847 25.1215 18.7514 25.3605C19.1181 25.5994 19.5237 25.8661 19.9682 26.1606C20.4127 26.4551 21.0072 26.7218 21.7518 26.9607C22.4963 27.1996 23.2464 27.3191 24.0021 27.3191C24.7577 27.3191 25.5078 27.1996 26.2524 26.9607C26.9969 26.7218 27.5914 26.4551 28.0359 26.1606C28.4804 25.8661 28.8861 25.5994 29.2528 25.3605C29.6195 25.1215 29.8584 25.0021 29.9695 25.0021C30.6474 25.0021 31.2669 25.1132 31.8281 25.3355C32.3893 25.5577 32.8643 25.855 33.2533 26.2272C33.6422 26.5995 33.9867 27.0496 34.2868 27.5774C34.5868 28.1053 34.8257 28.647 35.0035 29.2026C35.1813 29.7583 35.3286 30.3611 35.4452 31.0112C35.5619 31.6613 35.6397 32.2669 35.6786 32.8281C35.7175 33.3893 35.7369 33.9644 35.7369 34.5533ZM18.6681 13.2672C18.6681 14.4452 18.2513 15.4508 17.4179 16.2843C16.5845 17.1177 15.5788 17.5344 14.4008 17.5344C13.2229 17.5344 12.2172 17.1177 11.3838 16.2843C10.5503 15.4508 10.1336 14.4452 10.1336 13.2672C10.1336 12.0893 10.5503 11.0836 11.3838 10.2502C12.2172 9.41672 13.2229 9 14.4008 9C15.5788 9 16.5845 9.41672 17.4179 10.2502C18.2513 11.0836 18.6681 12.0893 18.6681 13.2672ZM30.4029 19.6681C30.4029 21.435 29.7778 22.9435 28.5277 24.1936C27.2775 25.4438 25.769 26.0689 24.0021 26.0689C22.2352 26.0689 20.7267 25.4438 19.4765 24.1936C18.2263 22.9435 17.6012 21.435 17.6012 19.6681C17.6012 17.9012 18.2263 16.3926 19.4765 15.1425C20.7267 13.8923 22.2352 13.2672 24.0021 13.2672C25.769 13.2672 27.2775 13.8923 28.5277 15.1425C29.7778 16.3926 30.4029 17.9012 30.4029 19.6681Z" fill="#F16524"/>
</g>
<defs>
<clipPath id="clip0_202_8749">
<rect width="32" height="29.8706" fill="white" transform="translate(8 9)"/>
</clipPath>
</defs>
</svg>
