<svg width="20" height="20" viewBox="0 0 20 20" fill="none" xmlns="http://www.w3.org/2000/svg">
<g id="Projects icon">
<g id="Projects Icon">
<g id="folder-open">
<path id="Vector" d="M18.0583 11.918L17.725 16.0846C17.6 17.3596 17.5 18.3346 15.2416 18.3346H4.7583C2.49997 18.3346 2.39997 17.3596 2.27497 16.0846L1.94163 11.918C1.87497 11.2263 2.09163 10.5846 2.4833 10.093C2.49163 10.0846 2.49163 10.0846 2.49997 10.0763C2.9583 9.51797 3.64997 9.16797 4.42497 9.16797H15.575C16.35 9.16797 17.0333 9.51797 17.4833 10.0596C17.4916 10.068 17.5 10.0763 17.5 10.0846C17.9083 10.5763 18.1333 11.218 18.0583 11.918Z" stroke="#575963" stroke-width="1.5" stroke-miterlimit="10"/>
<path id="Vector_2" d="M2.91675 9.52474V5.23307C2.91675 2.39974 3.62508 1.69141 6.45841 1.69141H7.51675C8.57508 1.69141 8.81675 2.00807 9.21675 2.54141L10.2751 3.95807C10.5417 4.30807 10.7001 4.52474 11.4084 4.52474H13.5334C16.3667 4.52474 17.0751 5.23307 17.0751 8.06641V9.55807" stroke="#575963" stroke-width="1.5" stroke-miterlimit="10" stroke-linecap="round" stroke-linejoin="round"/>
<path id="Vector_3" d="M7.8584 14.168H12.1417" stroke="#575963" stroke-width="1.5" stroke-miterlimit="10" stroke-linecap="round" stroke-linejoin="round"/>
</g>
</g>
</g>
</svg>
