<svg width="48" height="48" viewBox="0 0 48 48" fill="none" xmlns="http://www.w3.org/2000/svg">
<rect width="48" height="48" rx="8" fill="#FEF4EF"/>
<path d="M22.9423 22.5787C19.6656 22.4971 17.0271 19.8809 17.0271 16.6746C17.0271 13.4201 19.7509 10.7705 23.0982 10.7705C26.4492 10.7705 29.173 13.4201 29.173 16.6746C29.173 19.9291 26.4492 22.575 23.0982 22.575H22.9423V22.5787Z" fill="#F16524"/>
<path d="M31.5 25C33.2239 25 34.8772 25.6848 36.0962 26.9038C37.3152 28.1228 38 29.7761 38 31.5C38 33.2239 37.3152 34.8772 36.0962 36.0962C34.8772 37.3152 33.2239 38 31.5 38C29.7761 38 28.1228 37.3152 26.9038 36.0962C25.6848 34.8772 25 33.2239 25 31.5C25 29.7761 25.6848 28.1228 26.9038 26.9038C28.1228 25.6848 29.7761 25 31.5 25ZM33.4665 28.8575L33.3637 28.9638L30.5415 32.202L29.7013 31.3133L29.5949 31.2093C29.376 31.0217 29.0961 30.9205 28.8078 30.9249C28.5195 30.9293 28.2428 31.0389 28.0297 31.2331C27.8167 31.4273 27.6819 31.6927 27.6509 31.9793C27.6198 32.266 27.6946 32.554 27.8612 32.7894L27.9545 32.9052L29.7036 34.7902L29.8112 34.8954C30.0307 35.0818 30.3106 35.1816 30.5985 35.1762C30.8864 35.1707 31.1624 35.0604 31.3747 34.8658L31.4799 34.7571L35.1695 30.4907L35.2582 30.3702C35.4146 30.1288 35.4777 29.8386 35.4354 29.554C35.3932 29.2694 35.2487 29.01 35.0288 28.8245C34.809 28.6389 34.5291 28.5398 34.2415 28.5459C33.9538 28.552 33.6783 28.6627 33.4665 28.8575Z" fill="#F16524"/>
<path d="M14.3441 37.2257C12.7447 37.2257 11.4421 36.0864 11.4421 34.6837C11.4421 34.5761 11.4496 34.4796 11.4644 34.3794L11.9839 30.6313C12.1658 29.3325 12.7595 28.1599 13.7021 27.247C14.6484 26.3341 15.8693 25.7478 17.2386 25.5474L24.1707 25.5585C22.9498 27.4659 22.3078 29.6702 22.3078 31.9376C22.3078 33.7931 22.7271 35.5706 23.5509 37.2257H14.3441Z" fill="#F16524"/>
<path d="M17.2979 26.3414L22.8198 26.3488C21.9626 28.0818 21.5173 29.9893 21.5173 31.9375C21.5173 33.4961 21.7956 35.0027 22.3411 36.4314H14.344C13.7503 36.4314 13.1974 36.2311 12.7929 35.8637C12.4329 35.5371 12.2325 35.1178 12.2325 34.6836C12.2325 34.6168 12.2362 34.5537 12.2437 34.4906V34.4832L12.7632 30.7352C12.919 29.6107 13.4312 28.6014 14.2476 27.8109C15.064 27.0316 16.1142 26.5232 17.2979 26.3414ZM17.1829 24.7568C13.9952 25.1947 11.6128 27.5215 11.1972 30.5236L10.6776 34.2717C10.6591 34.409 10.6479 34.5463 10.6479 34.6873C10.6479 36.5279 12.2993 38.0197 14.3403 38.0197H23.562C24.1409 38.0197 24.5306 37.4148 24.2708 36.8953C23.5212 35.4035 23.0981 33.7225 23.0981 31.9412C23.0981 29.748 23.7364 27.707 24.8386 25.9889C25.1763 25.4619 24.8126 24.7717 24.1855 24.7717L17.1829 24.7568Z" fill="#F16524"/>
</svg>
