<svg width="24" height="24" viewBox="0 0 24 24" fill="none" xmlns="http://www.w3.org/2000/svg">
<g clip-path="url(#clip0_553_830)">
<path d="M16.2005 7.80665C15.9405 7.54665 15.5205 7.54665 15.2605 7.80665L12.0005 11.06L8.74047 7.79998C8.48047 7.53998 8.06047 7.53998 7.80047 7.79998C7.54047 8.05998 7.54047 8.47998 7.80047 8.73998L11.0605 12L7.80047 15.26C7.54047 15.52 7.54047 15.94 7.80047 16.2C8.06047 16.46 8.48047 16.46 8.74047 16.2L12.0005 12.94L15.2605 16.2C15.5205 16.46 15.9405 16.46 16.2005 16.2C16.4605 15.94 16.4605 15.52 16.2005 15.26L12.9405 12L16.2005 8.73998C16.4538 8.48665 16.4538 8.05998 16.2005 7.80665Z" fill="#8361FE"/>
</g>
<defs>
<clipPath id="clip0_553_830">
<rect width="16" height="16" fill="white" transform="translate(4 4)"/>
</clipPath>
</defs>
</svg>
