<svg width="48" height="48" viewBox="0 0 48 48" fill="none" xmlns="http://www.w3.org/2000/svg">
<rect width="48" height="48" rx="8" fill="#F4F7FA"/>
<path d="M36.8932 27.0689L36.3599 33.7356C36.1599 35.7756 35.9999 37.3356 32.3866 37.3356H15.6132C11.9999 37.3356 11.8399 35.7756 11.6399 33.7356L11.1066 27.0689C10.9999 25.9623 11.3466 24.9356 11.9732 24.1489C11.9866 24.1356 11.9866 24.1356 11.9999 24.1223C12.7332 23.2289 13.8399 22.6689 15.0799 22.6689H32.9199C34.1599 22.6689 35.2532 23.2289 35.9732 24.0956C35.9866 24.1089 35.9999 24.1223 35.9999 24.1356C36.6532 24.9223 37.0132 25.9489 36.8932 27.0689Z" fill="#3468EB" stroke="#3468EB" stroke-width="1.5" stroke-miterlimit="10"/>
<path d="M12.6668 23.2394V16.3727C12.6668 11.8394 13.8001 10.7061 18.3335 10.7061H20.0268C21.7201 10.7061 22.1068 11.2127 22.7468 12.0661L24.4401 14.3327C24.8668 14.8927 25.1201 15.2394 26.2535 15.2394H29.6535C34.1868 15.2394 35.3201 16.3727 35.3201 20.9061V23.2927" fill="#3468EB"/>
<path d="M12.6668 23.2394V16.3727C12.6668 11.8394 13.8001 10.7061 18.3335 10.7061H20.0268C21.7201 10.7061 22.1068 11.2127 22.7468 12.0661L24.4401 14.3327C24.8668 14.8927 25.1201 15.2394 26.2535 15.2394H29.6535C34.1868 15.2394 35.3201 16.3727 35.3201 20.9061V23.2927" stroke="#3468EB" stroke-width="1.5" stroke-miterlimit="10" stroke-linecap="round" stroke-linejoin="round"/>
<path d="M20.5734 30.6689H27.4268" stroke="#8F9BA4" stroke-width="1.5" stroke-miterlimit="10" stroke-linecap="round" stroke-linejoin="round"/>
<rect x="19" y="29" width="11" height="3" rx="1.5" fill="#D9E5F9"/>
<line x1="12" y1="22.5" x2="36" y2="22.5" stroke="#D9E5F9"/>
</svg>
