<svg width="20" height="20" viewBox="0 0 20 20" fill="none" xmlns="http://www.w3.org/2000/svg">
<g clip-path="url(#clip0_362_2028)">
<path d="M8.33519 10.8281L8.72983 10.5211L8.72974 10.521L8.72934 10.5205L8.72779 10.5185L8.72161 10.5105L8.69729 10.4793L8.60327 10.3584L8.25303 9.90812L7.059 8.37319C6.10296 7.1443 4.90534 5.60509 3.93873 4.36351C3.76925 4.14329 3.92437 3.82812 4.20186 3.82812H15.7935C16.0841 3.82812 16.2316 4.14705 16.065 4.36353C15.0984 5.60511 13.9007 7.14431 12.9447 8.37319L11.7507 9.90812L11.4005 10.3584L11.3064 10.4793L11.2821 10.5105L11.2759 10.5185L11.2744 10.5205L11.274 10.521L11.2739 10.5211L11.6685 10.8281L11.2738 10.5212L11.1685 10.6566V10.8281V14.9948C11.1685 15.6353 10.6424 16.1615 10.0019 16.1615C9.36133 16.1615 8.83519 15.6353 8.83519 14.9948V10.8281V10.6566L8.72987 10.5212L8.33519 10.8281Z" stroke="#70757A"/>
</g>
<defs>
<clipPath id="clip0_362_2028">
<rect width="20" height="20" fill="white"/>
</clipPath>
</defs>
</svg>
