<svg width="48" height="48" viewBox="0 0 48 48" fill="none" xmlns="http://www.w3.org/2000/svg">
<rect width="48" height="48" rx="8" fill="#FEF4EF"/>
<path d="M22.9423 22.5787C19.6656 22.4971 17.0271 19.8809 17.0271 16.6746C17.0271 13.4201 19.7509 10.7705 23.0982 10.7705C26.4492 10.7705 29.173 13.4201 29.173 16.6746C29.173 19.9291 26.4492 22.575 23.0982 22.575H22.9423V22.5787Z" fill="#F16524"/>
<path d="M23.0981 11.5647C24.5157 11.5647 25.8479 12.1028 26.8499 13.0751C27.837 14.0399 28.3825 15.3165 28.3825 16.6747C28.3825 18.0329 27.837 19.3095 26.8499 20.2743C25.8517 21.2503 24.5194 21.7847 23.1019 21.7847H22.9534C20.1071 21.7105 17.8175 19.4468 17.8175 16.671C17.8175 15.3128 18.363 14.0362 19.3501 13.0714C20.3483 12.1028 21.6806 11.5647 23.0981 11.5647ZM23.0981 9.98389C19.3056 9.98389 16.2329 12.9823 16.2329 16.6784C16.2329 20.3745 19.3093 23.3767 23.0981 23.3767V23.373C26.8907 23.373 29.9634 20.3782 29.9634 16.6784C29.9634 12.9786 26.8907 9.98389 23.0981 9.98389ZM37.0772 32.8952C36.5948 32.706 36.246 32.2347 36.246 31.6855C36.246 31.1362 36.5911 30.6649 37.0772 30.4757C37.2665 30.4015 37.389 30.2085 37.337 30.0118C37.1849 29.4403 36.9585 28.8985 36.6653 28.3976C36.5688 28.2306 36.3536 28.1675 36.1755 28.2491C35.6931 28.4681 35.1105 28.3827 34.7134 27.9894C34.32 27.596 34.2347 27.0097 34.4536 26.5272C34.5353 26.3491 34.4722 26.1339 34.3052 26.0374C33.8042 25.7442 33.2624 25.5179 32.6909 25.3657C32.4942 25.3138 32.3013 25.4362 32.2271 25.6255C32.0378 26.1079 31.5665 26.453 31.0173 26.453C30.4681 26.453 29.9968 26.1079 29.8075 25.6255C29.7333 25.4362 29.5403 25.3138 29.3437 25.3657C28.7722 25.5179 28.2304 25.7442 27.7294 26.0374C27.5624 26.1339 27.4993 26.3491 27.581 26.5272C27.7999 27.0097 27.7146 27.5923 27.3212 27.9894C26.9278 28.3827 26.3415 28.4681 25.8591 28.2491C25.681 28.1675 25.4657 28.2306 25.3692 28.3976C25.0761 28.8985 24.8497 29.4403 24.6976 30.0118C24.6456 30.2085 24.7681 30.4015 24.9573 30.4757C25.4397 30.6649 25.7886 31.1362 25.7886 31.6855C25.7886 32.2347 25.4435 32.706 24.9573 32.8952C24.7681 32.9694 24.6456 33.1624 24.6976 33.3591C24.8497 33.9306 25.0761 34.4724 25.3692 34.9733C25.4657 35.1403 25.681 35.2034 25.8591 35.1218C26.3415 34.9028 26.9241 34.9882 27.3212 35.3815C27.7146 35.7749 27.7999 36.3612 27.581 36.8437C27.4993 37.0218 27.5624 37.237 27.7294 37.3335C28.2304 37.6267 28.7722 37.853 29.3437 38.0052C29.5403 38.0571 29.7333 37.9347 29.8075 37.7454C29.9968 37.263 30.4681 36.9142 31.0173 36.9142C31.5665 36.9142 32.0378 37.2593 32.2271 37.7454C32.3013 37.9347 32.4942 38.0571 32.6909 38.0052C33.2624 37.853 33.8042 37.6267 34.3052 37.3335C34.4722 37.237 34.5353 37.0218 34.4536 36.8437C34.2347 36.3612 34.32 35.7786 34.7134 35.3815C35.1067 34.9882 35.6931 34.9028 36.1755 35.1218C36.3536 35.2034 36.5688 35.1403 36.6653 34.9733C36.9585 34.4724 37.1849 33.9306 37.337 33.3591C37.389 33.1624 37.2665 32.9694 37.0772 32.8952ZM31.0173 34.8509C29.2694 34.8509 27.8519 33.4333 27.8519 31.6855C27.8519 29.9376 29.2694 28.52 31.0173 28.52C32.7651 28.52 34.1827 29.9376 34.1827 31.6855C34.1827 33.4333 32.7651 34.8509 31.0173 34.8509Z" fill="#F16524"/>
<path d="M14.3441 37.2257C12.7447 37.2257 11.4421 36.0864 11.4421 34.6837C11.4421 34.5761 11.4496 34.4796 11.4644 34.3794L11.9839 30.6313C12.1658 29.3325 12.7595 28.1599 13.7021 27.247C14.6484 26.3341 15.8693 25.7478 17.2386 25.5474L24.1707 25.5585C22.9498 27.4659 22.3078 29.6702 22.3078 31.9376C22.3078 33.7931 22.7271 35.5706 23.5509 37.2257H14.3441Z" fill="#F16524"/>
<path d="M17.2979 26.3414L22.8198 26.3488C21.9626 28.0818 21.5173 29.9893 21.5173 31.9375C21.5173 33.4961 21.7956 35.0027 22.3411 36.4314H14.344C13.7503 36.4314 13.1974 36.2311 12.7929 35.8637C12.4329 35.5371 12.2325 35.1178 12.2325 34.6836C12.2325 34.6168 12.2362 34.5537 12.2437 34.4906V34.4832L12.7632 30.7352C12.919 29.6107 13.4312 28.6014 14.2476 27.8109C15.064 27.0316 16.1142 26.5232 17.2979 26.3414ZM17.1829 24.7568C13.9952 25.1947 11.6128 27.5215 11.1972 30.5236L10.6776 34.2717C10.6591 34.409 10.6479 34.5463 10.6479 34.6873C10.6479 36.5279 12.2993 38.0197 14.3403 38.0197H23.562C24.1409 38.0197 24.5306 37.4148 24.2708 36.8953C23.5212 35.4035 23.0981 33.7225 23.0981 31.9412C23.0981 29.748 23.7364 27.707 24.8386 25.9889C25.1763 25.4619 24.8126 24.7717 24.1855 24.7717L17.1829 24.7568Z" fill="#F16524"/>
</svg>
