<svg width="20" height="20" viewBox="0 0 20 20" fill="none" xmlns="http://www.w3.org/2000/svg">
<g id="visibility_off_black_24dp 2" clip-path="url(#clip0_133_3293)">
<path id="Vector" d="M10 5.41673C12.3 5.41673 14.1667 7.2834 14.1667 9.5834C14.1667 10.0084 14.0833 10.4167 13.9667 10.8001L16.5167 13.3501C17.675 12.3251 18.5917 11.0417 19.1667 9.57506C17.725 5.92506 14.1667 3.3334 10 3.3334C8.94168 3.3334 7.92501 3.50007 6.96668 3.8084L8.77501 5.61673C9.16668 5.50006 9.57501 5.41673 10 5.41673ZM2.25834 2.6334C1.93334 2.9584 1.93334 3.4834 2.25834 3.8084L3.90001 5.45006C2.55001 6.52506 1.47501 7.94173 0.833344 9.5834C2.27501 13.2417 5.83334 15.8334 10 15.8334C11.2667 15.8334 12.475 15.5834 13.5917 15.1501L15.8583 17.4167C16.1833 17.7417 16.7083 17.7417 17.0333 17.4167C17.3583 17.0917 17.3583 16.5667 17.0333 16.2417L3.44168 2.6334C3.11668 2.3084 2.58334 2.3084 2.25834 2.6334ZM10 13.7501C7.70001 13.7501 5.83334 11.8834 5.83334 9.5834C5.83334 8.94173 5.98334 8.3334 6.24168 7.80006L7.55001 9.1084C7.52501 9.2584 7.50001 9.41673 7.50001 9.5834C7.50001 10.9667 8.61668 12.0834 10 12.0834C10.1667 12.0834 10.3167 12.0584 10.475 12.0251L11.7833 13.3334C11.2417 13.6001 10.6417 13.7501 10 13.7501ZM12.475 9.3084C12.35 8.14173 11.4333 7.2334 10.275 7.1084L12.475 9.3084Z" fill="#C9CACD"/>
</g>
<defs>
<clipPath id="clip0_133_3293">
<rect width="20" height="20" fill="white"/>
</clipPath>
</defs>
</svg>
