<svg width="180" height="180" viewBox="0 0 180 180" fill="none" xmlns="http://www.w3.org/2000/svg">
<g id="success 1">
<path id="Vector" d="M90 165C131.421 165 165 131.421 165 90C165 48.5786 131.421 15 90 15C48.5786 15 15 48.5786 15 90C15 131.421 48.5786 165 90 165Z" fill="#00A37D"/>
<path id="Vector_2" fill-rule="evenodd" clip-rule="evenodd" d="M125.074 64.3746C126.526 65.8519 126.505 68.2262 125.028 69.6777L82.2374 111.719C80.8019 113.129 78.5084 113.155 77.0422 111.777L56.9885 92.9408C55.4789 91.5233 55.4047 89.1496 56.8226 87.6406C58.2406 86.1308 60.6137 86.0566 62.1233 87.4741L79.5509 103.844L119.772 64.3277C121.249 62.8762 123.623 62.8972 125.074 64.3746Z" fill="white"/>
</g>
</svg>
