<svg width="48" height="48" viewBox="0 0 48 48" fill="none" xmlns="http://www.w3.org/2000/svg">
<rect width="48" height="48" rx="8" fill="#FEF4EF"/>
<path d="M22.9423 22.5787C19.6656 22.4971 17.0271 19.8809 17.0271 16.6746C17.0271 13.4201 19.7509 10.7705 23.0982 10.7705C26.4492 10.7705 29.173 13.4201 29.173 16.6746C29.173 19.9291 26.4492 22.575 23.0982 22.575H22.9423V22.5787Z" fill="#F16524"/>
<path d="M14.3441 37.2257C12.7447 37.2257 11.4421 36.0864 11.4421 34.6837C11.4421 34.5761 11.4496 34.4796 11.4644 34.3794L11.9839 30.6313C12.1658 29.3325 12.7595 28.1599 13.7021 27.247C14.6484 26.3341 15.8693 25.7478 17.2386 25.5474L24.1707 25.5585C22.9498 27.4659 22.3078 29.6702 22.3078 31.9376C22.3078 33.7931 22.7271 35.5706 23.5509 37.2257H14.3441Z" fill="#F16524"/>
<path d="M17.2979 26.3414L22.8198 26.3488C21.9626 28.0818 21.5173 29.9893 21.5173 31.9375C21.5173 33.4961 21.7956 35.0027 22.3411 36.4314H14.344C13.7503 36.4314 13.1974 36.2311 12.7929 35.8637C12.4329 35.5371 12.2325 35.1178 12.2325 34.6836C12.2325 34.6168 12.2362 34.5537 12.2437 34.4906V34.4832L12.7632 30.7352C12.919 29.6107 13.4312 28.6014 14.2476 27.8109C15.064 27.0316 16.1142 26.5232 17.2979 26.3414ZM17.1829 24.7568C13.9952 25.1947 11.6128 27.5215 11.1972 30.5236L10.6776 34.2717C10.6591 34.409 10.6479 34.5463 10.6479 34.6873C10.6479 36.5279 12.2993 38.0197 14.3403 38.0197H23.562C24.1409 38.0197 24.5306 37.4148 24.2708 36.8953C23.5212 35.4035 23.0981 33.7225 23.0981 31.9412C23.0981 29.748 23.7364 27.707 24.8386 25.9889C25.1763 25.4619 24.8126 24.7717 24.1855 24.7717L17.1829 24.7568Z" fill="#F16524"/>
<path d="M31.6234 37.2252C33.2229 37.2252 34.5254 36.0859 34.5254 34.6832C34.5254 34.5756 34.518 34.4791 34.5031 34.3789L33.9836 30.6309C33.8018 29.332 33.208 28.1594 32.2654 27.2465C31.3191 26.3336 30.0982 25.7473 28.7289 25.5469L21.7969 25.558C23.0178 27.4654 23.6598 29.6697 23.6598 31.9371C23.6598 33.7926 23.2404 35.5701 22.4166 37.2252H31.6234Z" fill="#F16524"/>
<path d="M28.6696 26.3424L23.1477 26.3498C24.0049 28.0828 24.4502 29.9902 24.4502 31.9385C24.4502 33.4971 24.1719 35.0037 23.6264 36.4324H31.6235C32.2172 36.4324 32.7702 36.232 33.1747 35.8647C33.5346 35.5381 33.735 35.1188 33.735 34.6846C33.735 34.6178 33.7313 34.5547 33.7239 34.4916V34.4842L33.2043 30.7361C33.0485 29.6117 32.5364 28.6023 31.72 27.8119C30.9036 27.0326 29.8534 26.5242 28.6696 26.3424ZM28.7846 24.7578C31.9723 25.1957 34.3547 27.5225 34.7704 30.5246L35.2899 34.2727C35.3084 34.41 35.3196 34.5473 35.3196 34.6883C35.3196 36.5289 33.6682 38.0207 31.6272 38.0207H22.4055C21.8266 38.0207 21.437 37.4158 21.6967 36.8963C22.4463 35.4045 22.8694 33.7234 22.8694 31.9422C22.8694 29.749 22.2311 27.708 21.129 25.9898C20.7913 25.4629 21.1549 24.7727 21.7821 24.7727L28.7846 24.7578Z" fill="#F16524"/>
</svg>
